<svg width="480" height="380" viewBox="0 0 480 380" fill="none" xmlns="http://www.w3.org/2000/svg">
<g filter="url(#filter0_d_1_75)">
<rect x="25" y="25" width="430" height="330" rx="10" fill="white"/>
</g>
<rect x="61" y="268.337" width="358" height="50.152" rx="2" fill="black"/>
<path d="M232.167 291H230.582C230.488 290.544 230.324 290.143 230.09 289.798C229.86 289.453 229.578 289.163 229.246 288.929C228.918 288.69 228.554 288.511 228.153 288.392C227.752 288.273 227.335 288.213 226.9 288.213C226.108 288.213 225.389 288.413 224.746 288.814C224.107 289.214 223.598 289.805 223.218 290.585C222.843 291.364 222.656 292.321 222.656 293.455C222.656 294.588 222.843 295.545 223.218 296.325C223.598 297.104 224.107 297.695 224.746 298.095C225.389 298.496 226.108 298.696 226.9 298.696C227.335 298.696 227.752 298.636 228.153 298.517C228.554 298.398 228.918 298.221 229.246 297.987C229.578 297.748 229.86 297.456 230.09 297.111C230.324 296.761 230.488 296.361 230.582 295.909H232.167C232.048 296.578 231.831 297.177 231.515 297.705C231.2 298.234 230.808 298.683 230.339 299.054C229.87 299.42 229.344 299.7 228.76 299.891C228.181 300.083 227.561 300.179 226.9 300.179C225.784 300.179 224.791 299.906 223.921 299.361C223.052 298.815 222.368 298.04 221.87 297.034C221.371 296.028 221.122 294.835 221.122 293.455C221.122 292.074 221.371 290.881 221.87 289.875C222.368 288.869 223.052 288.094 223.921 287.548C224.791 287.003 225.784 286.73 226.9 286.73C227.561 286.73 228.181 286.826 228.76 287.018C229.344 287.21 229.87 287.491 230.339 287.862C230.808 288.228 231.2 288.675 231.515 289.204C231.831 289.728 232.048 290.327 232.167 291ZM234.524 300V290.182H235.982V291.665H236.084C236.263 291.179 236.587 290.785 237.055 290.482C237.524 290.18 238.053 290.028 238.641 290.028C238.752 290.028 238.89 290.031 239.056 290.035C239.222 290.039 239.348 290.045 239.433 290.054V291.588C239.382 291.575 239.265 291.556 239.082 291.531C238.903 291.501 238.713 291.486 238.513 291.486C238.036 291.486 237.609 291.586 237.234 291.786C236.864 291.982 236.57 292.255 236.352 292.604C236.139 292.95 236.033 293.344 236.033 293.787V300H234.524ZM241.222 300V290.182H242.73V300H241.222ZM241.989 288.545C241.695 288.545 241.441 288.445 241.228 288.245C241.019 288.045 240.915 287.804 240.915 287.523C240.915 287.241 241.019 287.001 241.228 286.8C241.441 286.6 241.695 286.5 241.989 286.5C242.283 286.5 242.534 286.6 242.743 286.8C242.956 287.001 243.062 287.241 243.062 287.523C243.062 287.804 242.956 288.045 242.743 288.245C242.534 288.445 242.283 288.545 241.989 288.545ZM248.382 300.23C247.76 300.23 247.195 300.113 246.688 299.879C246.181 299.64 245.778 299.297 245.48 298.849C245.182 298.398 245.033 297.852 245.033 297.213C245.033 296.651 245.144 296.195 245.365 295.845C245.587 295.491 245.883 295.214 246.254 295.014C246.624 294.814 247.033 294.665 247.481 294.567C247.933 294.464 248.386 294.384 248.842 294.324C249.439 294.247 249.923 294.19 250.293 294.151C250.668 294.109 250.941 294.038 251.112 293.94C251.286 293.842 251.374 293.672 251.374 293.429V293.378C251.374 292.747 251.201 292.257 250.856 291.908C250.515 291.558 249.997 291.384 249.303 291.384C248.582 291.384 248.018 291.541 247.609 291.857C247.2 292.172 246.912 292.509 246.746 292.866L245.314 292.355C245.57 291.759 245.911 291.294 246.337 290.962C246.767 290.625 247.236 290.391 247.743 290.259C248.254 290.122 248.757 290.054 249.252 290.054C249.567 290.054 249.929 290.092 250.338 290.169C250.752 290.241 251.15 290.393 251.533 290.623C251.921 290.853 252.243 291.2 252.499 291.665C252.754 292.129 252.882 292.751 252.882 293.531V300H251.374V298.67H251.297C251.195 298.884 251.024 299.112 250.786 299.354C250.547 299.597 250.229 299.804 249.833 299.974C249.437 300.145 248.953 300.23 248.382 300.23ZM248.612 298.875C249.209 298.875 249.712 298.758 250.121 298.523C250.534 298.289 250.845 297.987 251.054 297.616C251.267 297.245 251.374 296.855 251.374 296.446V295.065C251.31 295.142 251.169 295.212 250.952 295.276C250.739 295.336 250.492 295.389 250.21 295.436C249.933 295.479 249.663 295.517 249.399 295.551C249.139 295.581 248.928 295.607 248.766 295.628C248.374 295.679 248.007 295.762 247.666 295.877C247.33 295.988 247.057 296.156 246.848 296.382C246.644 296.604 246.541 296.906 246.541 297.29C246.541 297.814 246.735 298.21 247.123 298.479C247.515 298.743 248.011 298.875 248.612 298.875ZM255.636 300V290.182H257.093V291.665H257.195C257.374 291.179 257.698 290.785 258.167 290.482C258.636 290.18 259.164 290.028 259.752 290.028C259.863 290.028 260.001 290.031 260.168 290.035C260.334 290.039 260.459 290.045 260.545 290.054V291.588C260.494 291.575 260.376 291.556 260.193 291.531C260.014 291.501 259.824 291.486 259.624 291.486C259.147 291.486 258.721 291.586 258.346 291.786C257.975 291.982 257.681 292.255 257.464 292.604C257.251 292.95 257.144 293.344 257.144 293.787V300H255.636Z" fill="white"/>
<line opacity="0.2" x1="61" y1="219.837" x2="419" y2="219.837" stroke="black"/>
<path d="M62.233 207V196.818H63.4659V205.906H68.1989V207H62.233ZM69.9489 207V199.364H71.1222V207H69.9489ZM70.5455 198.091C70.3168 198.091 70.1196 198.013 69.9538 197.857C69.7914 197.701 69.7102 197.514 69.7102 197.295C69.7102 197.077 69.7914 196.889 69.9538 196.734C70.1196 196.578 70.3168 196.5 70.5455 196.5C70.7741 196.5 70.9697 196.578 71.1321 196.734C71.2978 196.889 71.3807 197.077 71.3807 197.295C71.3807 197.514 71.2978 197.701 71.1321 197.857C70.9697 198.013 70.7741 198.091 70.5455 198.091ZM74.4444 202.406V207H73.2711V199.364H74.4047V200.557H74.5041C74.6831 200.169 74.9548 199.857 75.3194 199.622C75.684 199.384 76.1547 199.264 76.7314 199.264C77.2484 199.264 77.7008 199.37 78.0886 199.582C78.4764 199.791 78.778 200.109 78.9934 200.537C79.2089 200.961 79.3166 201.498 79.3166 202.148V207H78.1433V202.227C78.1433 201.627 77.9875 201.16 77.676 200.825C77.3644 200.487 76.9368 200.318 76.3933 200.318C76.0188 200.318 75.684 200.399 75.389 200.562C75.0974 200.724 74.867 200.961 74.698 201.273C74.5289 201.584 74.4444 201.962 74.4444 202.406ZM82.5543 204.216L82.5344 202.764H82.7731L86.114 199.364H87.5657L84.006 202.963H83.9066L82.5543 204.216ZM81.4606 207V196.818H82.6339V207H81.4606ZM86.3129 207L83.3299 203.222L84.1651 202.406L87.8043 207H86.3129ZM95.8968 207.159C95.2605 207.159 94.6987 206.998 94.2115 206.677C93.7243 206.352 93.3431 205.895 93.068 205.305C92.7929 204.711 92.6554 204.01 92.6554 203.202C92.6554 202.4 92.7929 201.704 93.068 201.114C93.3431 200.524 93.7259 200.068 94.2164 199.746C94.707 199.425 95.2737 199.264 95.9167 199.264C96.4139 199.264 96.8066 199.347 97.095 199.513C97.3867 199.675 97.6087 199.861 97.7612 200.07C97.917 200.275 98.0379 200.444 98.1241 200.577H98.2235V196.818H99.3968V207H98.2633V205.827H98.1241C98.0379 205.966 97.9153 206.142 97.7562 206.354C97.5971 206.562 97.3701 206.75 97.0751 206.915C96.7801 207.078 96.3874 207.159 95.8968 207.159ZM96.0559 206.105C96.5266 206.105 96.9243 205.982 97.2491 205.737C97.5739 205.489 97.8208 205.146 97.9899 204.708C98.1589 204.267 98.2434 203.759 98.2434 203.182C98.2434 202.612 98.1606 202.113 97.9949 201.685C97.8291 201.254 97.5839 200.92 97.2591 200.681C96.9342 200.439 96.5332 200.318 96.0559 200.318C95.5588 200.318 95.1445 200.446 94.813 200.701C94.4849 200.953 94.238 201.296 94.0723 201.73C93.9099 202.161 93.8287 202.645 93.8287 203.182C93.8287 203.725 93.9115 204.219 94.0772 204.663C94.2463 205.104 94.4949 205.455 94.823 205.717C95.1544 205.976 95.5654 206.105 96.0559 206.105ZM104.91 207.159C104.175 207.159 103.54 206.997 103.006 206.672C102.476 206.344 102.067 205.886 101.778 205.3C101.493 204.71 101.351 204.024 101.351 203.241C101.351 202.459 101.493 201.77 101.778 201.173C102.067 200.573 102.468 200.106 102.981 199.771C103.498 199.433 104.102 199.264 104.791 199.264C105.189 199.264 105.581 199.33 105.969 199.463C106.357 199.596 106.71 199.811 107.028 200.109C107.346 200.404 107.6 200.795 107.789 201.283C107.978 201.77 108.072 202.37 108.072 203.082V203.58H102.186V202.565H106.879C106.879 202.134 106.793 201.75 106.621 201.412C106.452 201.074 106.21 200.807 105.895 200.612C105.583 200.416 105.215 200.318 104.791 200.318C104.324 200.318 103.919 200.434 103.578 200.666C103.24 200.895 102.98 201.193 102.797 201.561C102.615 201.929 102.524 202.323 102.524 202.744V203.42C102.524 203.997 102.623 204.486 102.822 204.887C103.024 205.285 103.305 205.588 103.662 205.797C104.02 206.002 104.436 206.105 104.91 206.105C105.219 206.105 105.497 206.062 105.746 205.976C105.997 205.886 106.215 205.754 106.397 205.578C106.579 205.399 106.72 205.177 106.819 204.912L107.953 205.23C107.834 205.615 107.633 205.953 107.351 206.244C107.07 206.533 106.722 206.758 106.307 206.92C105.893 207.08 105.427 207.159 104.91 207.159ZM113.795 207V199.364H114.968V207H113.795ZM114.391 198.091C114.162 198.091 113.965 198.013 113.8 197.857C113.637 197.701 113.556 197.514 113.556 197.295C113.556 197.077 113.637 196.889 113.8 196.734C113.965 196.578 114.162 196.5 114.391 196.5C114.62 196.5 114.815 196.578 114.978 196.734C115.144 196.889 115.226 197.077 115.226 197.295C115.226 197.514 115.144 197.701 114.978 197.857C114.815 198.013 114.62 198.091 114.391 198.091ZM117.117 207V199.364H118.25V200.557H118.35C118.509 200.149 118.766 199.833 119.12 199.607C119.475 199.379 119.901 199.264 120.398 199.264C120.902 199.264 121.321 199.379 121.656 199.607C121.994 199.833 122.257 200.149 122.446 200.557H122.526C122.721 200.162 123.015 199.849 123.406 199.617C123.797 199.382 124.266 199.264 124.813 199.264C125.496 199.264 126.054 199.478 126.488 199.906C126.922 200.33 127.14 200.991 127.14 201.889V207H125.966V201.889C125.966 201.326 125.812 200.923 125.504 200.681C125.196 200.439 124.833 200.318 124.415 200.318C123.878 200.318 123.462 200.481 123.167 200.805C122.872 201.127 122.725 201.535 122.725 202.028V207H121.532V201.77C121.532 201.336 121.391 200.986 121.109 200.721C120.827 200.452 120.464 200.318 120.02 200.318C119.715 200.318 119.43 200.399 119.165 200.562C118.903 200.724 118.691 200.95 118.529 201.238C118.37 201.523 118.29 201.853 118.29 202.227V207H117.117ZM131.532 207.179C131.048 207.179 130.609 207.088 130.214 206.906C129.82 206.72 129.507 206.453 129.275 206.105C129.043 205.754 128.927 205.33 128.927 204.832C128.927 204.395 129.013 204.04 129.185 203.768C129.358 203.493 129.588 203.278 129.876 203.122C130.165 202.966 130.483 202.85 130.831 202.774C131.182 202.695 131.535 202.632 131.89 202.585C132.354 202.526 132.73 202.481 133.018 202.451C133.31 202.418 133.522 202.363 133.655 202.287C133.791 202.211 133.859 202.078 133.859 201.889V201.849C133.859 201.359 133.724 200.978 133.456 200.706C133.191 200.434 132.788 200.298 132.248 200.298C131.688 200.298 131.249 200.421 130.93 200.666C130.612 200.911 130.388 201.173 130.259 201.452L129.146 201.054C129.344 200.59 129.61 200.229 129.941 199.97C130.276 199.708 130.64 199.526 131.035 199.423C131.433 199.317 131.824 199.264 132.208 199.264C132.453 199.264 132.735 199.294 133.053 199.354C133.375 199.41 133.685 199.528 133.983 199.707C134.285 199.886 134.535 200.156 134.734 200.517C134.933 200.878 135.032 201.362 135.032 201.969V207H133.859V205.966H133.799C133.719 206.132 133.587 206.309 133.401 206.498C133.216 206.687 132.969 206.848 132.661 206.98C132.352 207.113 131.976 207.179 131.532 207.179ZM131.711 206.125C132.175 206.125 132.566 206.034 132.884 205.852C133.206 205.669 133.448 205.434 133.61 205.146C133.776 204.857 133.859 204.554 133.859 204.236V203.162C133.809 203.222 133.7 203.276 133.531 203.326C133.365 203.372 133.173 203.414 132.954 203.45C132.738 203.483 132.528 203.513 132.322 203.54C132.12 203.563 131.956 203.583 131.83 203.599C131.525 203.639 131.24 203.704 130.975 203.793C130.713 203.879 130.501 204.01 130.339 204.186C130.18 204.358 130.1 204.594 130.1 204.892C130.1 205.3 130.251 205.608 130.553 205.817C130.857 206.022 131.244 206.125 131.711 206.125ZM140.256 210.023C139.689 210.023 139.202 209.95 138.794 209.804C138.387 209.661 138.047 209.473 137.775 209.237C137.507 209.005 137.293 208.757 137.134 208.491L138.068 207.835C138.174 207.974 138.309 208.134 138.471 208.312C138.633 208.495 138.856 208.652 139.137 208.785C139.422 208.921 139.795 208.989 140.256 208.989C140.872 208.989 141.381 208.839 141.782 208.541C142.183 208.243 142.384 207.776 142.384 207.139V205.588H142.284C142.198 205.727 142.075 205.9 141.916 206.105C141.761 206.307 141.535 206.488 141.24 206.647C140.949 206.803 140.554 206.881 140.057 206.881C139.441 206.881 138.887 206.735 138.396 206.443C137.909 206.152 137.523 205.727 137.238 205.17C136.956 204.614 136.816 203.937 136.816 203.142C136.816 202.36 136.953 201.679 137.228 201.099C137.503 200.515 137.886 200.065 138.377 199.746C138.867 199.425 139.434 199.264 140.077 199.264C140.574 199.264 140.968 199.347 141.26 199.513C141.555 199.675 141.78 199.861 141.936 200.07C142.095 200.275 142.218 200.444 142.304 200.577H142.423V199.364H143.557V207.219C143.557 207.875 143.408 208.409 143.11 208.82C142.815 209.234 142.417 209.537 141.916 209.729C141.419 209.925 140.866 210.023 140.256 210.023ZM140.216 205.827C140.687 205.827 141.084 205.719 141.409 205.504C141.734 205.288 141.981 204.978 142.15 204.574C142.319 204.17 142.404 203.686 142.404 203.122C142.404 202.572 142.321 202.086 142.155 201.665C141.989 201.245 141.744 200.915 141.419 200.676C141.094 200.437 140.693 200.318 140.216 200.318C139.719 200.318 139.305 200.444 138.973 200.696C138.645 200.948 138.398 201.286 138.232 201.71C138.07 202.134 137.989 202.605 137.989 203.122C137.989 203.652 138.072 204.121 138.237 204.529C138.406 204.933 138.655 205.252 138.983 205.484C139.315 205.712 139.726 205.827 140.216 205.827ZM148.906 207.159C148.171 207.159 147.536 206.997 147.002 206.672C146.472 206.344 146.063 205.886 145.774 205.3C145.489 204.71 145.347 204.024 145.347 203.241C145.347 202.459 145.489 201.77 145.774 201.173C146.063 200.573 146.464 200.106 146.977 199.771C147.494 199.433 148.098 199.264 148.787 199.264C149.185 199.264 149.578 199.33 149.965 199.463C150.353 199.596 150.706 199.811 151.024 200.109C151.343 200.404 151.596 200.795 151.785 201.283C151.974 201.77 152.068 202.37 152.068 203.082V203.58H146.182V202.565H150.875C150.875 202.134 150.789 201.75 150.617 201.412C150.448 201.074 150.206 200.807 149.891 200.612C149.579 200.416 149.211 200.318 148.787 200.318C148.32 200.318 147.915 200.434 147.574 200.666C147.236 200.895 146.976 201.193 146.794 201.561C146.611 201.929 146.52 202.323 146.52 202.744V203.42C146.52 203.997 146.619 204.486 146.818 204.887C147.021 205.285 147.301 205.588 147.659 205.797C148.017 206.002 148.432 206.105 148.906 206.105C149.215 206.105 149.493 206.062 149.742 205.976C149.994 205.886 150.211 205.754 150.393 205.578C150.575 205.399 150.716 205.177 150.816 204.912L151.949 205.23C151.83 205.615 151.629 205.953 151.347 206.244C151.066 206.533 150.718 206.758 150.303 206.92C149.889 207.08 149.423 207.159 148.906 207.159ZM153.853 207V199.364H154.987V200.557H155.086C155.245 200.149 155.502 199.833 155.857 199.607C156.211 199.379 156.637 199.264 157.134 199.264C157.638 199.264 158.057 199.379 158.392 199.607C158.73 199.833 158.994 200.149 159.183 200.557H159.262C159.458 200.162 159.751 199.849 160.142 199.617C160.533 199.382 161.002 199.264 161.549 199.264C162.232 199.264 162.79 199.478 163.225 199.906C163.659 200.33 163.876 200.991 163.876 201.889V207H162.703V201.889C162.703 201.326 162.548 200.923 162.24 200.681C161.932 200.439 161.569 200.318 161.151 200.318C160.615 200.318 160.199 200.481 159.904 200.805C159.609 201.127 159.461 201.535 159.461 202.028V207H158.268V201.77C158.268 201.336 158.127 200.986 157.845 200.721C157.564 200.452 157.201 200.318 156.757 200.318C156.452 200.318 156.167 200.399 155.901 200.562C155.64 200.724 155.427 200.95 155.265 201.238C155.106 201.523 155.026 201.853 155.026 202.227V207H153.853Z" fill="#C4C4C4"/>
<line opacity="0.2" x1="61" y1="162.755" x2="419" y2="162.755" stroke="black"/>
<path d="M61.6761 140.912V139.818H69.3125V140.912H66.1108V150H64.8778V140.912H61.6761ZM71.0563 150V142.364H72.2296V150H71.0563ZM71.1159 141.33L72.329 139.023H73.7012L72.15 141.33H71.1159ZM77.6996 142.364V143.358H73.7422V142.364H77.6996ZM74.8956 140.534H76.0689V147.812C76.0689 148.144 76.117 148.393 76.2131 148.558C76.3125 148.721 76.4384 148.83 76.5909 148.886C76.7467 148.939 76.9107 148.966 77.0831 148.966C77.2124 148.966 77.3184 148.959 77.4013 148.946C77.4841 148.929 77.5504 148.916 77.6001 148.906L77.8388 149.96C77.7592 149.99 77.6482 150.02 77.5057 150.05C77.3632 150.083 77.1825 150.099 76.9638 150.099C76.6323 150.099 76.3075 150.028 75.9893 149.886C75.6745 149.743 75.4126 149.526 75.2038 149.234C74.9983 148.943 74.8956 148.575 74.8956 148.131V140.534ZM84.277 146.878V142.364H85.4503V150H84.277V148.707H84.1974C84.0185 149.095 83.7401 149.425 83.3622 149.697C82.9844 149.965 82.5071 150.099 81.9304 150.099C81.4531 150.099 81.0289 149.995 80.6577 149.786C80.2865 149.574 79.9948 149.256 79.7827 148.832C79.5705 148.404 79.4645 147.866 79.4645 147.216V142.364H80.6378V147.136C80.6378 147.693 80.7936 148.137 81.1051 148.469C81.42 148.8 81.821 148.966 82.3082 148.966C82.5999 148.966 82.8965 148.891 83.1982 148.742C83.5031 148.593 83.7583 148.364 83.9638 148.056C84.1726 147.748 84.277 147.355 84.277 146.878ZM88.7725 139.818V150H87.5993V139.818H88.7725ZM94.0238 150.159C93.3344 150.159 92.7295 149.995 92.2092 149.667C91.6921 149.339 91.2878 148.88 90.9961 148.29C90.7077 147.7 90.5636 147.01 90.5636 146.222C90.5636 145.426 90.7077 144.732 90.9961 144.138C91.2878 143.545 91.6921 143.085 92.2092 142.756C92.7295 142.428 93.3344 142.264 94.0238 142.264C94.7132 142.264 95.3164 142.428 95.8335 142.756C96.3538 143.085 96.7582 143.545 97.0465 144.138C97.3382 144.732 97.484 145.426 97.484 146.222C97.484 147.01 97.3382 147.7 97.0465 148.29C96.7582 148.88 96.3538 149.339 95.8335 149.667C95.3164 149.995 94.7132 150.159 94.0238 150.159ZM94.0238 149.105C94.5475 149.105 94.9783 148.971 95.3164 148.702C95.6545 148.434 95.9047 148.081 96.0671 147.643C96.2295 147.206 96.3107 146.732 96.3107 146.222C96.3107 145.711 96.2295 145.236 96.0671 144.795C95.9047 144.354 95.6545 143.998 95.3164 143.726C94.9783 143.454 94.5475 143.318 94.0238 143.318C93.5001 143.318 93.0692 143.454 92.7312 143.726C92.3931 143.998 92.1429 144.354 91.9805 144.795C91.8181 145.236 91.7369 145.711 91.7369 146.222C91.7369 146.732 91.8181 147.206 91.9805 147.643C92.1429 148.081 92.3931 148.434 92.7312 148.702C93.0692 148.971 93.5001 149.105 94.0238 149.105Z" fill="#C4C4C4"/>
<path d="M77.2273 64.5455V82H73.2727L66.9659 72.8295H66.8636V82H62.125V64.5455H66.1477L72.3523 73.6818H72.4886V64.5455H77.2273ZM85.8438 82.2386C84.4233 82.2386 83.2074 81.9574 82.196 81.3949C81.1847 80.8267 80.4091 80.0369 79.8693 79.0256C79.3295 78.0085 79.0597 76.8295 79.0597 75.4886C79.0597 74.1477 79.3295 72.9716 79.8693 71.9602C80.4091 70.9432 81.1847 70.1534 82.196 69.5909C83.2074 69.0227 84.4233 68.7386 85.8438 68.7386C87.2642 68.7386 88.4801 69.0227 89.4915 69.5909C90.5028 70.1534 91.2784 70.9432 91.8182 71.9602C92.358 72.9716 92.6278 74.1477 92.6278 75.4886C92.6278 76.8295 92.358 78.0085 91.8182 79.0256C91.2784 80.0369 90.5028 80.8267 89.4915 81.3949C88.4801 81.9574 87.2642 82.2386 85.8438 82.2386ZM85.8778 78.7614C86.2756 78.7614 86.6193 78.6278 86.9091 78.3608C87.1989 78.0937 87.4233 77.7131 87.5824 77.2188C87.7415 76.7244 87.821 76.1364 87.821 75.4545C87.821 74.767 87.7415 74.179 87.5824 73.6903C87.4233 73.196 87.1989 72.8153 86.9091 72.5483C86.6193 72.2812 86.2756 72.1477 85.8778 72.1477C85.4574 72.1477 85.0966 72.2812 84.7955 72.5483C84.4943 72.8153 84.2642 73.196 84.1051 73.6903C83.946 74.179 83.8665 74.767 83.8665 75.4545C83.8665 76.1364 83.946 76.7244 84.1051 77.2188C84.2642 77.7131 84.4943 78.0937 84.7955 78.3608C85.0966 78.6278 85.4574 78.7614 85.8778 78.7614ZM107.332 68.9091L102.934 82H97.4794L93.0817 68.9091H98.0249L100.138 77.5682H100.275L102.388 68.9091H107.332ZM114.578 82.2386C113.158 82.2386 111.942 81.9574 110.93 81.3949C109.919 80.8267 109.143 80.0369 108.604 79.0256C108.064 78.0085 107.794 76.8295 107.794 75.4886C107.794 74.1477 108.064 72.9716 108.604 71.9602C109.143 70.9432 109.919 70.1534 110.93 69.5909C111.942 69.0227 113.158 68.7386 114.578 68.7386C115.999 68.7386 117.214 69.0227 118.226 69.5909C119.237 70.1534 120.013 70.9432 120.553 71.9602C121.092 72.9716 121.362 74.1477 121.362 75.4886C121.362 76.8295 121.092 78.0085 120.553 79.0256C120.013 80.0369 119.237 80.8267 118.226 81.3949C117.214 81.9574 115.999 82.2386 114.578 82.2386ZM114.612 78.7614C115.01 78.7614 115.354 78.6278 115.643 78.3608C115.933 78.0937 116.158 77.7131 116.317 77.2188C116.476 76.7244 116.555 76.1364 116.555 75.4545C116.555 74.767 116.476 74.179 116.317 73.6903C116.158 73.196 115.933 72.8153 115.643 72.5483C115.354 72.2812 115.01 72.1477 114.612 72.1477C114.192 72.1477 113.831 72.2812 113.53 72.5483C113.229 72.8153 112.999 73.196 112.839 73.6903C112.68 74.179 112.601 74.767 112.601 75.4545C112.601 76.1364 112.68 76.7244 112.839 77.2188C112.999 77.7131 113.229 78.0937 113.53 78.3608C113.831 78.6278 114.192 78.7614 114.612 78.7614ZM132.757 64.5455V82H128.053V64.5455H132.757ZM141.461 82.2386C140.04 82.2386 138.825 81.9574 137.813 81.3949C136.802 80.8267 136.026 80.0369 135.487 79.0256C134.947 78.0085 134.677 76.8295 134.677 75.4886C134.677 74.1477 134.947 72.9716 135.487 71.9602C136.026 70.9432 136.802 70.1534 137.813 69.5909C138.825 69.0227 140.04 68.7386 141.461 68.7386C142.881 68.7386 144.097 69.0227 145.109 69.5909C146.12 70.1534 146.896 70.9432 147.435 71.9602C147.975 72.9716 148.245 74.1477 148.245 75.4886C148.245 76.8295 147.975 78.0085 147.435 79.0256C146.896 80.0369 146.12 80.8267 145.109 81.3949C144.097 81.9574 142.881 82.2386 141.461 82.2386ZM141.495 78.7614C141.893 78.7614 142.237 78.6278 142.526 78.3608C142.816 78.0937 143.04 77.7131 143.2 77.2188C143.359 76.7244 143.438 76.1364 143.438 75.4545C143.438 74.767 143.359 74.179 143.2 73.6903C143.04 73.196 142.816 72.8153 142.526 72.5483C142.237 72.2812 141.893 72.1477 141.495 72.1477C141.075 72.1477 140.714 72.2812 140.413 72.5483C140.112 72.8153 139.881 73.196 139.722 73.6903C139.563 74.179 139.484 74.767 139.484 75.4545C139.484 76.1364 139.563 76.7244 139.722 77.2188C139.881 77.7131 140.112 78.0937 140.413 78.3608C140.714 78.6278 141.075 78.7614 141.495 78.7614ZM156.461 82.2386C155.04 82.2386 153.825 81.9574 152.813 81.3949C151.802 80.8267 151.026 80.0369 150.487 79.0256C149.947 78.0085 149.677 76.8295 149.677 75.4886C149.677 74.1477 149.947 72.9716 150.487 71.9602C151.026 70.9432 151.802 70.1534 152.813 69.5909C153.825 69.0227 155.04 68.7386 156.461 68.7386C157.745 68.7386 158.856 68.9716 159.793 69.4375C160.737 69.8977 161.467 70.5511 161.984 71.3977C162.501 72.2386 162.762 73.2273 162.768 74.3636H158.404C158.342 73.6761 158.143 73.1534 157.808 72.7955C157.478 72.4318 157.052 72.25 156.529 72.25C156.12 72.25 155.762 72.3693 155.455 72.608C155.148 72.8409 154.91 73.196 154.739 73.6733C154.569 74.1449 154.484 74.7386 154.484 75.4545C154.484 76.1705 154.569 76.767 154.739 77.2443C154.91 77.7159 155.148 78.071 155.455 78.3097C155.762 78.5426 156.12 78.6591 156.529 78.6591C156.876 78.6591 157.183 78.5795 157.45 78.4205C157.717 78.2557 157.933 78.017 158.097 77.7045C158.268 77.3864 158.37 77 158.404 76.5455H162.768C162.751 77.6989 162.487 78.7045 161.975 79.5625C161.464 80.4148 160.739 81.0739 159.802 81.5398C158.87 82.0057 157.756 82.2386 156.461 82.2386ZM168.357 82.2045C167.521 82.2045 166.783 82.0682 166.141 81.7955C165.504 81.517 165.004 81.0966 164.641 80.5341C164.277 79.9716 164.095 79.2557 164.095 78.3864C164.095 77.6705 164.217 77.0597 164.462 76.554C164.706 76.0426 165.047 75.625 165.484 75.3011C165.922 74.9773 166.43 74.7301 167.01 74.5597C167.595 74.3892 168.226 74.2784 168.902 74.2273C169.635 74.1705 170.223 74.1023 170.666 74.0227C171.115 73.9375 171.439 73.821 171.638 73.6733C171.837 73.5199 171.936 73.3182 171.936 73.0682V73.0341C171.936 72.6932 171.805 72.4318 171.544 72.25C171.283 72.0682 170.947 71.9773 170.538 71.9773C170.089 71.9773 169.723 72.0767 169.439 72.2756C169.161 72.4687 168.993 72.767 168.936 73.1705H164.607C164.663 72.375 164.916 71.642 165.365 70.9716C165.82 70.2955 166.482 69.7557 167.351 69.3523C168.22 68.9432 169.305 68.7386 170.607 68.7386C171.544 68.7386 172.385 68.8494 173.129 69.071C173.874 69.2869 174.507 69.5909 175.03 69.983C175.553 70.3693 175.95 70.8239 176.223 71.3466C176.501 71.8636 176.641 72.4261 176.641 73.0341V82H172.243V80.1591H172.141C171.879 80.6477 171.561 81.0426 171.186 81.3438C170.817 81.6449 170.393 81.8636 169.916 82C169.445 82.1364 168.925 82.2045 168.357 82.2045ZM169.891 79.2386C170.249 79.2386 170.584 79.1648 170.896 79.017C171.214 78.8693 171.473 78.6562 171.672 78.3778C171.871 78.0994 171.97 77.7614 171.97 77.3636V76.2727C171.845 76.3239 171.712 76.3722 171.57 76.4176C171.433 76.4631 171.286 76.5057 171.126 76.5455C170.973 76.5852 170.808 76.6222 170.632 76.6562C170.462 76.6903 170.283 76.7216 170.095 76.75C169.732 76.8068 169.433 76.9006 169.2 77.0312C168.973 77.1562 168.803 77.3125 168.689 77.5C168.581 77.6818 168.527 77.8864 168.527 78.1136C168.527 78.4773 168.655 78.7557 168.911 78.9489C169.166 79.142 169.493 79.2386 169.891 79.2386ZM183.593 64.5455V82H178.888V64.5455H183.593Z" fill="black"/>
<defs>
<filter id="filter0_d_1_75" x="0" y="0" width="480" height="380" filterUnits="userSpaceOnUse" color-interpolation-filters="sRGB">
<feFlood flood-opacity="0" result="BackgroundImageFix"/>
<feColorMatrix in="SourceAlpha" type="matrix" values="0 0 0 0 0 0 0 0 0 0 0 0 0 0 0 0 0 0 127 0" result="hardAlpha"/>
<feOffset/>
<feGaussianBlur stdDeviation="12.5"/>
<feColorMatrix type="matrix" values="0 0 0 0 0 0 0 0 0 0 0 0 0 0 0 0 0 0 0.15 0"/>
<feBlend mode="normal" in2="BackgroundImageFix" result="effect1_dropShadow_1_75"/>
<feBlend mode="normal" in="SourceGraphic" in2="effect1_dropShadow_1_75" result="shape"/>
</filter>
</defs>
</svg>
